<svg width="100%" height="100%" viewBox="0 0 85 86" version="1.1" xmlns="http://www.w3.org/2000/svg" xmlns:xlink="http://www.w3.org/1999/xlink" xml:space="preserve" xmlns:serif="http://www.serif.com/" style="fill-rule:evenodd;clip-rule:evenodd;stroke-linejoin:round;stroke-miterlimit:2;">
    <g transform="matrix(1,0,0,1,-12.5008,-17.5)">
        <g transform="matrix(1,0,0,1,5,10)">
            <path d="M91.328,86.391L71.098,68.289C76.879,61.84 80.399,53.309 80.399,43.961C80.399,23.82 64.079,7.5 43.95,7.5C23.821,7.5 7.501,23.828 7.501,43.961C7.501,64.09 23.821,80.422 43.95,80.422C52.2,80.422 59.809,77.684 65.919,73.051L86.669,91.61C87.341,92.211 88.169,92.501 88.997,92.501C89.958,92.501 90.919,92.11 91.606,91.329C92.895,89.887 92.767,87.68 91.325,86.387L91.328,86.391ZM14.5,43.961C14.5,27.711 27.711,14.5 43.949,14.5C60.187,14.5 73.398,27.711 73.398,43.961C73.398,60.211 60.187,73.422 43.949,73.422C27.711,73.422 14.5,60.211 14.5,43.961Z" style="fill-rule:nonzero;"/>
        </g>
    </g>
</svg>
